<svg width="2110" height="2412" viewBox="0 0 2110 2412" fill="none" xmlns="http://www.w3.org/2000/svg">
<path d="M1958.88 491.355L1199.3 40.3827C1109.03 -13.4609 996.49 -13.4609 906.211 40.3827L146.479 491.355C55.0934 546.485 -0.545824 645.63 0.00403808 752.355V1654.15C-0.49215 1760.82 55.1401 1859.89 146.479 1915L906.059 2365.82C996.347 2419.63 1108.86 2419.63 1199.15 2365.82L1958.73 1915C2050.18 1859.9 2105.88 1760.75 2105.36 1654V752.355C2105.91 645.63 2050.27 546.485 1958.88 491.355Z" fill="white"/>
<path d="M1963.2 492.437L1201.95 40.4716C1111.47 -13.4905 998.685 -13.4905 908.207 40.4716L146.802 492.437C55.2147 547.688 -0.547026 647.052 0.00404698 754.013V1657.79C-0.493234 1764.7 55.2615 1863.99 146.802 1919.21L908.054 2371.03C998.542 2424.96 1111.31 2424.96 1201.79 2371.03L1963.05 1919.21C2054.69 1864 2110.51 1764.63 2110 1657.64V754.013C2110.55 647.052 2054.79 547.688 1963.2 492.437ZM934.73 2324.84L173.477 1873.03C98.2496 1827.44 52.4294 1745.75 52.7481 1657.79V754.013C52.3991 666.044 98.2271 584.34 173.477 538.777L934.73 86.8114C1008.82 42.6113 1101.18 42.6113 1175.27 86.8114L1935.91 538.777C1998.62 576.756 2041.39 640.444 2052.83 712.856C2027.53 659.047 1970.67 644.26 1904.36 682.369L1184.72 1128.08C1094.94 1180.37 1028.78 1239.36 1028.63 1347.59V2235.06C1028.63 2299.84 1054.7 2341.76 1094.94 2354.11C1081.76 2356.52 1068.4 2357.8 1055 2357.92C1012.67 2357.89 971.124 2346.46 934.73 2324.84Z" fill="#2F3A3E"/>
<path d="M1761.57 1743.23L1572.36 1856.39C1567.29 1858.43 1563.89 1863.25 1563.69 1868.71V1918.45C1563.69 1924.53 1567.79 1926.97 1572.81 1924.08L1764.91 1807.26C1769.62 1803.74 1771.87 1797.82 1770.69 1792.05V1748.4C1770.54 1742.77 1766.13 1740.34 1761.57 1743.23Z" fill="#3AB14A"/>
<path d="M1358.95 1326.62C1365.03 1323.58 1370.05 1326.62 1370.2 1335.29L1370.81 1401.3C1393.56 1390.97 1418.95 1387.89 1443.51 1392.48C1448.23 1393.7 1450.2 1400.09 1448.38 1407.69L1433.93 1465.64C1432.83 1470.02 1430.57 1474.01 1427.39 1477.2C1426.27 1478.31 1424.99 1479.23 1423.59 1479.94C1421.87 1480.87 1419.88 1481.19 1417.96 1480.85C1394.01 1475.55 1368.93 1479.57 1347.84 1492.11C1317 1506 1296.85 1536.32 1295.98 1570.13C1295.98 1600.55 1311.19 1608.92 1364.27 1609.83C1434.39 1611.05 1464.81 1641.62 1465.57 1712.35C1463.9 1786.17 1429.86 1855.53 1372.48 1902.01L1373.7 1966.81C1373.59 1974.85 1369.41 1982.3 1362.6 1986.58L1324.27 2008.63C1318.18 2011.68 1313.16 2008.63 1313.01 2000.12V1936.39C1280.16 1950.08 1246.85 1953.27 1225.56 1944.75C1221.6 1943.23 1219.78 1937.3 1221.45 1930.46L1235.29 1871.9C1236.34 1867.26 1238.72 1863.04 1242.13 1859.73C1243.22 1858.69 1244.45 1857.82 1245.78 1857.14C1247.77 1856.25 1250.04 1856.25 1252.02 1857.14C1279.13 1864.5 1308.06 1860.83 1332.48 1846.95C1367.73 1829.95 1390.63 1794.8 1391.95 1755.69C1391.95 1722.84 1373.85 1709.15 1331.11 1708.85C1275.9 1708.85 1224.64 1698.2 1223.58 1617.59C1224.85 1547.16 1257.54 1481 1312.71 1437.2L1309.97 1370.89C1309.95 1362.72 1314.15 1355.13 1321.07 1350.81L1358.95 1326.62Z" fill="white"/>
</svg>
