<svg width="456" height="512" viewBox="0 0 456 512" fill="none" xmlns="http://www.w3.org/2000/svg">
<path d="M449.703 384.001C453.272 377.817 455.491 370.849 455.491 364.592V147.408C455.491 141.151 453.276 134.185 449.705 128.001L302.286 141.283L200.873 256.001L281.464 370.937L449.703 384.001Z" fill="#00599C"/>
<path d="M247.701 507.307L435.79 398.716C441.208 395.587 446.132 390.186 449.703 384L228.001 256L82.0951 261.157L6.29848 384.002C9.86793 390.186 14.7946 395.589 20.2112 398.716L208.299 507.307C219.134 513.564 236.867 513.564 247.701 507.307Z" fill="#004482"/>
<path d="M449.704 127.999C446.132 121.813 441.207 116.412 435.79 113.283L247.701 4.6926C236.867 -1.5642 219.134 -1.5642 208.299 4.6926L20.2112 113.284C9.37487 119.539 0.510742 134.896 0.510742 147.408V364.592C0.510742 370.849 2.72802 377.817 6.29948 384.001L228.002 256L449.704 127.999Z" fill="#659AD2"/>
<path d="M228.001 407.661C144.375 407.661 76.3404 339.626 76.3404 256C76.3404 172.375 144.375 104.34 228.001 104.34C281.961 104.34 332.288 133.379 359.337 180.123L293.703 218.104C280.165 194.707 254.988 180.171 228.002 180.171C186.188 180.171 152.171 214.187 152.171 256C152.171 297.813 186.187 331.83 228.002 331.83C254.991 331.83 280.168 317.294 293.708 293.893L359.342 331.872C332.292 378.621 281.964 407.661 228.001 407.661Z" fill="white"/>
<path d="M379.661 247.574H362.809V230.724H345.96V247.574H329.107V264.426H345.96V281.278H362.809V264.426H379.661V247.574ZM442.852 247.574H426V230.724H409.151V247.574H392.298V264.426H409.151V281.278H426V264.426H442.852V247.574Z" fill="white"/>
</svg>
