<svg width="2429" height="1753" viewBox="0 0 2429 1753" fill="none" xmlns="http://www.w3.org/2000/svg">
<path d="M2378.86 668.897C2324.16 630.945 2198.82 616.713 2100.82 635.689C2089.43 540.81 2037.01 457.791 1945.85 384.26L1893.43 346.308L1856.97 400.864C1811.38 472.023 1788.59 571.646 1795.43 666.525C1797.71 699.733 1809.11 759.032 1843.29 811.215C1811.38 830.191 1745.29 853.911 1658.69 853.911H10.9568L6.39874 872.887C-9.55442 967.766 -9.55443 1264.26 177.325 1491.97C318.625 1665.13 528.295 1752.89 804.057 1752.89C1401.16 1752.89 1843.29 1465.88 2050.68 946.418C2132.73 948.79 2308.21 946.418 2397.09 768.52C2399.37 763.776 2403.93 754.288 2419.88 718.708L2429 699.733L2378.86 668.897ZM1328.23 0H1077.54V237.197H1328.23V0ZM1328.23 284.637H1077.54V521.835H1328.23V284.637ZM1031.96 284.637H781.266V521.835H1031.96V284.637ZM735.686 284.637H484.994V521.835H735.686V284.637ZM439.413 569.274H188.721V806.471H439.413V569.274ZM735.686 569.274H484.994V806.471H735.686V569.274ZM1031.96 569.274H781.266V806.471H1031.96V569.274ZM1328.23 569.274H1077.54V806.471H1328.23V569.274ZM1624.5 569.274H1373.81V806.471H1624.5V569.274Z" fill="#2396ED"/>
</svg>
