<svg width="2500" height="2500" viewBox="0 0 2500 2500" fill="none" xmlns="http://www.w3.org/2000/svg">
<circle cx="1250" cy="1250" r="1250" fill="white"/>
<path d="M2064.68 1115.49C2029.23 1090.9 1947.99 1081.68 1884.48 1093.97C1877.1 1032.48 1843.13 978.682 1784.05 931.028L1750.08 906.433L1726.45 941.789C1696.91 987.905 1682.14 1052.47 1686.57 1113.96C1688.05 1135.48 1695.43 1173.91 1717.59 1207.73C1696.91 1220.02 1654.08 1235.4 1597.95 1235.4H530.101L527.147 1247.69C516.808 1309.18 516.808 1501.33 637.92 1648.91C729.492 1761.12 865.374 1818 1044.09 1818C1431.05 1818 1717.59 1632 1851.99 1295.35C1905.16 1296.89 2018.89 1295.35 2076.49 1180.06C2077.97 1176.98 2080.92 1170.83 2091.26 1147.78L2097.17 1135.48L2064.68 1115.49ZM1383.79 682H1221.32V835.721H1383.79V682ZM1383.79 866.465H1221.32V1020.19H1383.79V866.465ZM1191.78 866.465H1029.32V1020.19H1191.78V866.465ZM999.778 866.465H837.311V1020.19H999.778V866.465ZM807.772 1050.93H645.305V1204.65H807.772V1050.93ZM999.778 1050.93H837.311V1204.65H999.778V1050.93ZM1191.78 1050.93H1029.32V1204.65H1191.78V1050.93ZM1383.79 1050.93H1221.32V1204.65H1383.79V1050.93ZM1575.8 1050.93H1413.33V1204.65H1575.8V1050.93Z" fill="#2396ED"/>
</svg>
