<svg width="2222" height="2412" viewBox="0 0 2222 2412" fill="none" xmlns="http://www.w3.org/2000/svg">
<path fill-rule="evenodd" clip-rule="evenodd" d="M1111 96.1602C532.117 96.1602 62.7021 605.601 62.7021 1234.1C62.7021 1736.89 363.071 2163.41 779.592 2313.9C831.966 2324.45 851.2 2289.21 851.2 2259.16C851.2 2232.02 850.228 2142.38 849.776 2047.3C558.139 2116.13 496.6 1913.04 496.6 1913.04C448.914 1781.51 380.205 1746.53 380.205 1746.53C285.076 1675.91 387.375 1677.38 387.375 1677.38C492.624 1685.39 548.07 1794.64 548.07 1794.64C641.568 1968.57 793.306 1918.29 853.127 1889.24C862.535 1815.69 889.703 1765.47 919.682 1737.06C686.841 1708.32 442.057 1610.73 442.057 1174.7C442.057 1050.46 483.025 948.953 550.084 869.244C539.182 840.601 503.3 724.863 560.222 568.121C560.222 568.121 648.234 537.537 848.561 684.764C932.199 659.532 1021.89 646.85 1111 646.417C1200.05 646.85 1289.8 659.494 1373.6 684.726C1573.68 537.5 1661.59 568.083 1661.59 568.083C1718.65 724.806 1682.77 840.564 1671.88 869.206C1739.1 948.915 1779.77 1050.43 1779.77 1174.66C1779.77 1611.73 1534.53 1707.94 1301.1 1736.13C1338.72 1771.45 1372.22 1840.71 1372.22 1946.86C1372.22 2099.12 1371.01 2221.66 1371.01 2259.14C1371.01 2289.42 1389.9 2324.9 1443.02 2313.73C1859.29 2163.09 2159.32 1736.7 2159.32 1234.1C2159.3 605.639 1689.94 96.1602 1111 96.1602Z" fill="black"/>
<path d="M459.746 1729.97C457.437 1735.62 449.243 1737.32 441.779 1733.46C434.141 1729.76 429.888 1722.06 432.353 1716.38C434.61 1710.54 442.821 1708.94 450.407 1712.84C458.045 1716.55 462.385 1724.34 459.729 1729.99L459.746 1729.97ZM502.207 1781.39C497.225 1786.43 487.451 1784.09 480.82 1776.12C473.946 1768.2 472.661 1757.59 477.748 1752.49C482.921 1747.48 492.399 1749.85 499.273 1757.76C506.113 1765.79 507.467 1776.31 502.224 1781.41L502.207 1781.39ZM543.557 1846.91C537.134 1851.78 526.614 1847.23 520.122 1837.12C513.699 1826.98 513.699 1814.82 520.295 1809.98C526.77 1805.12 537.134 1809.51 543.731 1819.53C550.119 1829.8 550.119 1841.98 543.557 1846.91ZM600.166 1910.25C594.437 1917.13 582.182 1915.28 573.224 1905.91C564.076 1896.74 561.524 1883.68 567.27 1876.82C573.103 1869.92 585.41 1871.84 594.42 1881.15C603.568 1890.31 606.329 1903.39 600.201 1910.23L600.166 1910.25ZM678.283 1947.01C675.731 1955.93 663.962 1959.98 652.07 1956.17C640.214 1952.27 632.454 1941.85 634.885 1932.84C637.315 1923.85 649.171 1919.65 661.132 1923.7C672.988 1927.58 680.748 1937.95 678.283 1947.01ZM764.09 1953.81C764.386 1963.2 754.317 1970.96 741.87 1971.15C729.32 1971.47 719.164 1963.86 719.043 1954.62C719.043 1945.15 728.903 1937.48 741.436 1937.21C753.883 1936.97 764.108 1944.51 764.108 1953.8L764.09 1953.81ZM843.909 1939.08C845.402 1948.22 836.739 1957.62 824.362 1960.13C812.211 1962.58 800.927 1956.89 799.365 1947.82C797.872 1938.44 806.69 1929.04 818.842 1926.6C831.237 1924.29 842.347 1929.79 843.909 1939.08Z" fill="black"/>
</svg>
