<svg width="2222" height="2412" viewBox="0 0 2222 2412" fill="none" xmlns="http://www.w3.org/2000/svg">
<circle cx="1114" cy="1301" r="1045" fill="white"/>
<path fill-rule="evenodd" clip-rule="evenodd" d="M1119.49 80C523.382 80 40 589.515 40 1218.11C40 1720.97 349.306 2147.55 778.22 2298.06C832.152 2308.62 851.959 2273.37 851.959 2243.32C851.959 2216.17 850.958 2126.52 850.492 2031.43C550.178 2100.27 486.808 1897.15 486.808 1897.15C437.703 1765.6 366.95 1730.61 366.95 1730.61C268.99 1659.98 374.333 1661.45 374.333 1661.45C482.714 1669.46 539.809 1778.73 539.809 1778.73C636.089 1952.68 792.342 1902.4 853.943 1873.34C863.631 1799.78 891.607 1749.55 922.478 1721.14C682.709 1692.4 430.642 1594.79 430.642 1158.7C430.642 1034.44 472.829 932.918 541.883 853.197C530.657 824.55 493.707 708.795 552.323 552.03C552.323 552.03 642.954 521.441 849.241 668.69C935.368 643.454 1027.73 630.77 1119.49 630.337C1211.19 630.77 1303.61 643.416 1389.9 668.652C1595.93 521.404 1686.46 551.992 1686.46 551.992C1745.22 708.738 1708.27 824.513 1697.06 853.159C1766.28 932.88 1808.16 1034.41 1808.16 1158.66C1808.16 1595.79 1555.62 1692.02 1315.24 1720.21C1353.98 1755.54 1388.48 1824.81 1388.48 1930.97C1388.48 2083.25 1387.23 2205.81 1387.23 2243.3C1387.23 2273.58 1406.69 2309.07 1461.39 2297.89C1890.04 2147.23 2199 1720.78 2199 1218.11C2198.98 589.553 1715.65 80 1119.49 80Z" fill="black"/>
<path d="M459.75 1729.97C457.441 1735.62 449.247 1737.32 441.783 1733.46C434.145 1729.76 429.892 1722.06 432.357 1716.38C434.614 1710.54 442.825 1708.94 450.411 1712.84C458.049 1716.55 462.389 1724.34 459.733 1729.99L459.75 1729.97ZM502.211 1781.39C497.229 1786.43 487.455 1784.09 480.824 1776.12C473.95 1768.2 472.665 1757.59 477.752 1752.49C482.925 1747.48 492.403 1749.85 499.277 1757.76C506.117 1765.79 507.471 1776.31 502.228 1781.41L502.211 1781.39ZM543.561 1846.91C537.138 1851.78 526.618 1847.23 520.126 1837.12C513.703 1826.98 513.703 1814.82 520.299 1809.98C526.774 1805.12 537.138 1809.51 543.735 1819.53C550.123 1829.8 550.123 1841.98 543.561 1846.91ZM600.17 1910.25C594.441 1917.13 582.186 1915.28 573.228 1905.91C564.08 1896.74 561.528 1883.68 567.274 1876.82C573.107 1869.92 585.414 1871.84 594.424 1881.15C603.572 1890.31 606.333 1903.39 600.205 1910.23L600.17 1910.25ZM678.287 1947.01C675.735 1955.93 663.966 1959.98 652.074 1956.17C640.218 1952.27 632.458 1941.85 634.889 1932.84C637.319 1923.85 649.175 1919.65 661.136 1923.7C672.992 1927.58 680.752 1937.95 678.287 1947.01ZM764.094 1953.81C764.39 1963.2 754.321 1970.96 741.874 1971.15C729.324 1971.47 719.168 1963.86 719.047 1954.62C719.047 1945.15 728.907 1937.48 741.44 1937.21C753.887 1936.97 764.112 1944.51 764.112 1953.8L764.094 1953.81ZM843.913 1939.08C845.406 1948.22 836.743 1957.62 824.366 1960.13C812.215 1962.58 800.931 1956.89 799.369 1947.82C797.876 1938.44 806.694 1929.04 818.846 1926.6C831.241 1924.29 842.351 1929.79 843.913 1939.08Z" fill="black"/>
</svg>
