<svg width="1965" height="1965" viewBox="0 0 1965 1965" fill="none" xmlns="http://www.w3.org/2000/svg">
<path d="M0 0H1965V1965H0V0Z" fill="#F7DF1E"/>
<path d="M516.683 1642.11L667.058 1551.11C696.069 1602.54 722.459 1646.06 785.76 1646.06C846.438 1646.06 884.693 1622.33 884.693 1530.01V902.141H1069.35V1532.62C1069.35 1723.88 957.242 1810.93 793.676 1810.93C645.955 1810.93 560.206 1734.42 516.68 1642.1" fill="black"/>
<path d="M1169.66 1622.34L1320.01 1535.28C1359.59 1599.92 1411.04 1647.4 1502.04 1647.4C1578.56 1647.4 1627.35 1609.15 1627.35 1556.38C1627.35 1493.07 1577.23 1470.64 1492.81 1433.72L1446.66 1413.93C1313.43 1357.22 1225.05 1285.99 1225.05 1135.62C1225.05 997.12 1330.57 891.594 1495.45 891.594C1612.85 891.594 1697.27 932.488 1757.93 1039.33L1614.16 1131.66C1582.5 1074.94 1548.22 1052.52 1495.46 1052.52C1441.38 1052.52 1407.08 1086.82 1407.08 1131.66C1407.08 1187.06 1441.38 1209.49 1520.51 1243.78L1566.67 1263.57C1723.64 1330.84 1812.01 1399.42 1812.01 1553.75C1812.01 1719.95 1681.43 1810.96 1506.01 1810.96C1334.53 1810.96 1223.73 1729.18 1169.66 1622.34Z" fill="black"/>
</svg>
