<svg width="2500" height="2500" viewBox="0 0 2500 2500" fill="none" xmlns="http://www.w3.org/2000/svg">
<circle cx="1250" cy="1250" r="1250" fill="white"/>
<path d="M668.749 1340.45V1339.39V1178.07H704.128V1352.86C705.772 1366.95 704.562 1381.22 700.57 1394.83C696.578 1408.44 689.886 1421.1 680.894 1432.07C664.181 1446.48 642.766 1454.28 620.696 1453.98L617 1427.58C631.235 1427.59 644.969 1422.32 655.547 1412.79C665.052 1401.7 668.749 1386.65 668.749 1340.45ZM932.597 1319.62C932.597 1339.43 932.597 1357.12 934.181 1372.43H902.763L900.651 1341.01C894.079 1352.13 884.681 1361.31 873.412 1367.61C862.143 1373.92 849.405 1377.13 836.492 1376.92C805.866 1376.92 769.43 1360.28 769.43 1292.43V1179.69H804.81V1285.3C804.81 1322 816.163 1346.55 848.11 1346.55C854.682 1346.63 861.203 1345.38 867.289 1342.9C873.375 1340.42 878.904 1336.74 883.552 1332.1C888.2 1327.45 891.873 1321.92 894.356 1315.83C896.838 1309.75 898.081 1303.23 898.01 1296.65V1178.37H933.389V1318.57L932.597 1319.62ZM999.66 1242.51C999.66 1217.95 999.66 1197.89 998.076 1179.67H1029.76L1031.34 1212.67C1038.4 1200.75 1048.56 1190.96 1060.75 1184.36C1072.93 1177.76 1086.67 1174.59 1100.52 1175.18C1147.51 1175.18 1182.89 1214.52 1182.89 1273.13C1182.89 1342.31 1140.39 1376.63 1094.44 1376.63C1082.69 1377.16 1070.99 1374.64 1060.49 1369.32C1049.99 1364 1041.04 1356.06 1034.51 1346.27V1451.88H999.66V1243.3V1242.51ZM1034.51 1293.99C1034.61 1298.78 1035.14 1303.55 1036.1 1308.25C1039.09 1319.97 1045.91 1330.36 1055.47 1337.77C1065.04 1345.19 1076.8 1349.2 1088.9 1349.17C1126.13 1349.17 1148.04 1318.81 1148.04 1274.72C1148.04 1236.17 1127.45 1203.17 1090.22 1203.17C1075.49 1204.37 1061.7 1210.91 1051.45 1221.56C1041.19 1232.2 1035.17 1246.22 1034.51 1260.99V1293.99ZM1245.93 1179.49L1288.44 1293.29C1292.92 1305.96 1297.68 1321.27 1300.85 1332.63C1304.54 1321.01 1308.5 1306.22 1313.25 1292.5L1351.8 1179.49H1389.03L1336.22 1316.79C1309.82 1382.79 1293.72 1416.85 1269.43 1437.44C1257.19 1448.62 1242.28 1456.44 1226.13 1460.15L1217.41 1430.58C1228.71 1426.87 1239.19 1421.05 1248.3 1413.42C1261.18 1402.92 1271.41 1389.53 1278.14 1374.34C1279.58 1371.71 1280.56 1368.85 1281.04 1365.89C1280.74 1362.71 1279.94 1359.59 1278.67 1356.65L1206.85 1178.96H1245.4L1245.93 1179.49ZM1482.95 1124.1V1179.55H1533.64V1205.95H1482.95V1309.97C1482.95 1333.74 1489.82 1347.47 1509.35 1347.47C1516.29 1347.58 1523.22 1346.78 1529.95 1345.09L1531.53 1371.49C1521.44 1374.99 1510.79 1376.6 1500.11 1376.24C1493.04 1376.69 1485.96 1375.59 1479.35 1373.04C1472.74 1370.49 1466.77 1366.54 1461.83 1361.46C1451.07 1347.08 1446.17 1329.15 1448.1 1311.29V1205.69H1418V1179.28H1448.63V1132.29L1482.95 1124.1ZM1598.82 1282.14C1598.1 1291.09 1599.34 1300.09 1602.44 1308.52C1605.54 1316.95 1610.44 1324.61 1616.79 1330.96C1623.14 1337.31 1630.8 1342.21 1639.23 1345.31C1647.66 1348.42 1656.66 1349.65 1665.62 1348.93C1683.73 1349.34 1701.72 1345.92 1718.42 1338.9L1724.49 1365.3C1704 1373.75 1681.96 1377.79 1659.81 1377.19C1646.89 1378.07 1633.94 1376.15 1621.83 1371.56C1609.73 1366.96 1598.76 1359.81 1589.68 1350.58C1580.6 1341.35 1573.63 1330.27 1569.23 1318.09C1564.84 1305.91 1563.13 1292.92 1564.23 1280.02C1564.23 1221.94 1598.82 1176 1655.32 1176C1718.68 1176 1734.53 1231.44 1734.53 1266.82C1734.86 1272.27 1734.86 1277.74 1734.53 1283.19H1598.03L1598.82 1282.14ZM1702.31 1255.73C1703.33 1248.68 1702.83 1241.48 1700.83 1234.63C1698.83 1227.79 1695.39 1221.45 1690.74 1216.04C1686.09 1210.64 1680.33 1206.3 1673.85 1203.3C1667.38 1200.31 1660.34 1198.75 1653.21 1198.71C1638.7 1199.76 1625.11 1206.19 1615.1 1216.73C1605.08 1227.28 1599.37 1241.19 1599.08 1255.73H1702.31ZM1788.21 1239.53C1788.21 1216.82 1788.21 1197.29 1786.62 1179.33H1818.3V1217.09H1819.89C1823.21 1205.44 1830.09 1195.11 1839.55 1187.54C1849.01 1179.97 1860.6 1175.53 1872.69 1174.84C1876.02 1174.41 1879.4 1174.41 1882.73 1174.84V1207.85C1878.69 1207.38 1874.62 1207.38 1870.58 1207.85C1858.6 1208.31 1847.19 1213.12 1838.49 1221.38C1829.8 1229.64 1824.4 1240.79 1823.32 1252.73C1822.33 1258.13 1821.8 1263.61 1821.74 1269.1V1371.81H1786.89V1239.79L1788.21 1239.53Z" fill="#4E4E4E"/>
<path d="M1772.7 649.093C1773.79 666.831 1769.57 684.489 1760.58 699.819C1751.59 715.15 1738.24 727.458 1722.24 735.176C1706.23 742.894 1688.29 745.672 1670.7 743.158C1653.1 740.643 1636.66 732.948 1623.46 721.054C1610.25 709.16 1600.89 693.605 1596.56 676.371C1592.23 659.136 1593.12 641.003 1599.14 624.28C1605.15 607.557 1616 593.002 1630.31 582.468C1644.62 571.935 1661.75 565.901 1679.5 565.134C1691.14 564.493 1702.79 566.16 1713.79 570.038C1724.78 573.917 1734.9 579.93 1743.56 587.733C1752.22 595.536 1759.25 604.974 1764.26 615.504C1769.26 626.034 1772.13 637.45 1772.7 649.093Z" fill="#767677"/>
<path d="M1250.62 1683.16C1013 1683.16 804.158 1597.88 696.172 1471.95C738.071 1585.24 813.672 1682.98 912.801 1752.02C1011.93 1821.05 1129.83 1858.05 1250.62 1858.05C1371.42 1858.05 1489.31 1821.05 1588.44 1752.02C1687.57 1682.98 1763.17 1585.24 1805.07 1471.95C1697.35 1597.88 1489.3 1683.16 1250.62 1683.16Z" fill="#F37726"/>
<path d="M1250.62 864.215C1488.24 864.215 1697.09 949.495 1805.07 1075.43C1763.17 962.138 1687.57 864.396 1588.44 795.365C1489.31 726.334 1371.42 689.328 1250.62 689.328C1129.83 689.328 1011.93 726.334 912.801 795.365C813.672 864.396 738.071 962.138 696.172 1075.43C804.158 949.231 1011.95 864.215 1250.62 864.215Z" fill="#F37726"/>
<path d="M923.523 1928.25C924.917 1950.59 919.628 1972.84 908.331 1992.16C897.033 2011.49 880.239 2027.01 860.087 2036.76C839.935 2046.5 817.338 2050.03 795.175 2046.89C773.012 2043.74 752.286 2034.07 735.638 2019.11C718.99 2004.14 707.174 1984.56 701.695 1962.86C696.216 1941.16 697.322 1918.31 704.872 1897.24C712.423 1876.17 726.075 1857.82 744.091 1844.53C762.107 1831.25 783.67 1823.62 806.033 1822.64C820.682 1821.85 835.343 1823.96 849.177 1828.85C863.011 1833.73 875.747 1841.29 886.658 1851.1C897.568 1860.91 906.44 1872.77 912.766 1886.01C919.091 1899.24 922.747 1913.6 923.523 1928.25Z" fill="#9E9E9E"/>
<path d="M723.173 835.508C710.369 835.861 697.747 832.421 686.893 825.62C676.039 818.819 667.438 808.96 662.172 797.284C656.906 785.608 655.211 772.635 657.298 759.998C659.385 747.36 665.163 735.622 673.904 726.26C682.645 716.897 693.959 710.328 706.424 707.378C718.888 704.429 731.946 705.231 743.956 709.683C755.966 714.135 766.392 722.039 773.922 732.401C781.451 742.763 785.749 755.12 786.275 767.918C786.775 785.223 780.429 802.027 768.615 814.681C756.801 827.336 740.472 834.82 723.173 835.508Z" fill="#616262"/>
</svg>
