<svg width="2222" height="2476" viewBox="0 0 2222 2476" fill="none" xmlns="http://www.w3.org/2000/svg">
<path d="M2212.36 727.763C2212.34 686.14 2203.44 649.361 2185.44 617.803C2167.76 586.755 2141.28 560.739 2105.75 540.169C1812.54 371.102 1519.05 202.553 1225.94 33.3142C1146.91 -12.3067 1070.29 -10.6349 991.858 35.641C875.152 104.46 290.844 439.223 116.727 540.074C45.0214 581.593 10.1293 645.121 10.112 727.685C10 1067.69 10.112 1407.69 10 1747.69C10 1788.4 18.5399 1824.47 35.749 1855.56C53.4407 1887.54 80.2928 1914.27 116.633 1935.3C290.757 2036.15 875.143 2370.89 991.824 2439.74C1070.29 2486.04 1146.91 2487.69 1225.96 2442.06C1519.08 2272.82 1812.6 2104.27 2105.85 1935.2C2142.19 1914.17 2169.04 1887.43 2186.73 1855.47C2203.92 1824.38 2212.47 1788.32 2212.47 1747.6C2212.47 1747.6 2212.47 1067.77 2212.36 727.763Z" fill="black"/>
<rect x="500" y="584" width="1223" height="1309" fill="white"/>
<path d="M566.812 367C480.136 367 397.01 401.432 335.721 462.721C274.432 524.01 240 607.136 240 693.812L240 1783.19C240 1869.86 274.432 1952.99 335.721 2014.28C397.01 2075.57 480.136 2110 566.812 2110H1656.19C1742.86 2110 1825.99 2075.57 1887.28 2014.28C1948.57 1952.99 1983 1869.86 1983 1783.19V693.812C1983 607.136 1948.57 524.01 1887.28 462.721C1825.99 401.432 1742.86 367 1656.19 367H566.812ZM964.071 1441.05V1701.48H729.783V780.381H964.071V1176.19H976.2L1282.53 780.381H1534.03L1215.57 1187.01L1552.55 1701.48H1277.45L1045.05 1338.29L964.071 1441.05Z" fill="black"/>
</svg>
