<svg width="2295" height="2284" viewBox="0 0 2295 2284" fill="none" xmlns="http://www.w3.org/2000/svg">
<path d="M1139.23 0C556.615 4.15554e-05 592.997 252.657 592.997 252.657L593.647 514.407H1149.62V592.997H372.815C372.815 592.997 0 550.717 0 1138.58C-4.15536e-05 1726.44 325.402 1705.6 325.402 1705.6H519.603V1432.81C519.603 1432.81 509.135 1107.4 839.809 1107.4H1391.24C1391.24 1107.4 1701.05 1112.41 1701.05 807.983V304.617C1701.05 304.617 1748.09 0 1139.23 0ZM832.664 176.016C887.98 176.016 932.688 220.724 932.688 276.039C932.688 331.355 887.98 376.063 832.664 376.063C777.349 376.063 732.64 331.355 732.64 276.039C732.64 220.724 777.349 176.016 832.664 176.016Z" fill="url(#paint0_linear_2_33)"/>
<path d="M1155.77 2283.07C1738.39 2283.07 1702.01 2030.41 1702.01 2030.41L1701.36 1768.66H1145.38V1690.07H1922.19C1922.19 1690.07 2295 1732.36 2295 1144.49C2295 556.627 1969.6 577.474 1969.6 577.474H1775.4V850.266C1775.4 850.266 1785.87 1175.67 1455.19 1175.67H903.765C903.765 1175.67 593.952 1170.66 593.952 1475.09V1978.45C593.952 1978.45 546.914 2283.07 1155.77 2283.07ZM1462.34 2107.06C1407.02 2107.06 1362.32 2062.35 1362.32 2007.03C1362.32 1951.72 1407.02 1907.01 1462.34 1907.01C1517.65 1907.01 1562.36 1951.72 1562.36 2007.03C1562.36 2062.35 1517.65 2107.06 1462.34 2107.06Z" fill="url(#paint1_linear_2_33)"/>
<defs>
<linearGradient id="paint0_linear_2_33" x1="22055.4" y1="20535.5" x2="135788" y2="133133" gradientUnits="userSpaceOnUse">
<stop stop-color="#387EB8"/>
<stop offset="1" stop-color="#366994"/>
</linearGradient>
<linearGradient id="paint1_linear_2_33" x1="33146.1" y1="35679.1" x2="155282" y2="151138" gradientUnits="userSpaceOnUse">
<stop stop-color="#FFE052"/>
<stop offset="1" stop-color="#FFC331"/>
</linearGradient>
</defs>
</svg>
