<svg width="2446" height="2176" viewBox="0 0 2446 2176" fill="none" xmlns="http://www.w3.org/2000/svg">
<path d="M2010.88 705.282C1985.5 696.549 1959.22 688.287 1932.15 680.473C1936.6 662.315 1940.68 644.392 1944.31 626.774C2003.91 337.48 1964.94 104.423 1831.88 27.6911C1704.29 -45.885 1495.63 30.8299 1284.89 214.228C1264.63 231.863 1244.31 250.535 1223.99 270.103C1210.46 257.156 1196.95 244.645 1183.47 232.678C962.61 36.5763 741.233 -46.0635 608.303 30.8908C480.837 104.68 443.089 323.776 496.735 597.942C501.916 624.423 507.971 651.466 514.819 678.962C483.488 687.856 453.241 697.337 424.3 707.424C165.367 797.7 0 939.184 0 1085.94C0 1237.51 177.521 1389.54 447.22 1481.72C468.504 1489 490.588 1495.87 513.348 1502.4C505.96 1532.14 499.535 1561.28 494.141 1589.71C442.989 1859.11 482.935 2073.03 610.062 2146.36C741.372 2222.08 961.748 2144.25 1176.34 1956.67C1193.3 1941.84 1210.32 1926.12 1227.37 1909.63C1249.47 1930.92 1271.54 1951.06 1293.49 1969.95C1501.35 2148.82 1706.64 2221.05 1833.65 2147.52C1964.83 2071.58 2007.46 1841.78 1952.11 1562.19C1947.88 1540.84 1942.96 1519.02 1937.44 1496.82C1952.92 1492.24 1968.11 1487.52 1982.92 1482.61C2263.3 1389.71 2445.72 1239.53 2445.72 1085.94C2445.72 938.653 2275.02 796.215 2010.88 705.282ZM1950.06 1383.44C1936.69 1387.86 1922.97 1392.14 1908.99 1396.29C1878.03 1298.3 1836.26 1194.1 1785.14 1086.45C1833.92 981.359 1874.08 878.494 1904.17 781.14C1929.19 788.379 1953.47 796.015 1976.87 804.073C2203.19 881.985 2341.24 997.179 2341.24 1085.94C2341.24 1180.49 2192.15 1303.22 1950.06 1383.44ZM1849.61 1582.48C1874.09 1706.11 1877.59 1817.89 1861.37 1905.27C1846.81 1983.78 1817.51 2036.13 1781.29 2057.1C1704.22 2101.71 1539.39 2043.72 1361.63 1890.75C1341.25 1873.22 1320.73 1854.49 1300.13 1834.68C1369.05 1759.31 1437.92 1671.69 1505.14 1574.38C1623.38 1563.89 1735.08 1546.73 1836.38 1523.32C1841.37 1543.44 1845.8 1563.18 1849.61 1582.48ZM833.803 2049.39C758.498 2075.98 698.522 2076.75 662.267 2055.84C585.122 2011.35 553.05 1839.59 596.797 1609.19C601.808 1582.81 607.772 1555.7 614.646 1528C714.834 1550.15 825.719 1566.09 944.234 1575.7C1011.91 1670.92 1082.77 1758.45 1154.18 1835.08C1138.58 1850.15 1123.04 1864.49 1107.59 1878C1012.7 1960.94 917.605 2019.79 833.803 2049.39ZM481.011 1382.86C361.755 1342.1 263.269 1289.12 195.762 1231.31C135.102 1179.36 104.476 1127.79 104.476 1085.94C104.476 996.883 237.249 883.291 458.691 806.084C485.56 796.716 513.687 787.887 542.877 779.594C573.481 879.147 613.627 983.231 662.076 1088.48C613.001 1195.3 572.284 1301.04 541.379 1401.76C520.57 1395.78 500.41 1389.48 481.011 1382.86ZM599.27 577.877C553.307 342.979 583.833 165.78 660.648 121.314C742.469 73.9455 923.399 141.483 1114.09 310.807C1126.28 321.63 1138.52 332.957 1150.79 344.676C1079.73 420.978 1009.52 507.845 942.445 602.504C827.421 613.165 717.316 630.291 616.083 653.225C609.718 627.623 604.08 602.469 599.27 577.877ZM1654.24 838.377C1630.04 796.577 1605.2 755.764 1579.87 716.066C1657.91 725.93 1732.67 739.025 1802.88 755.05C1781.8 822.605 1755.53 893.238 1724.6 965.648C1702.42 923.529 1678.95 881.062 1654.24 838.377ZM1224.03 419.345C1272.22 471.555 1320.48 529.846 1367.95 593.092C1320.12 590.833 1271.69 589.657 1222.86 589.657C1174.5 589.657 1126.43 590.806 1078.89 593.027C1126.4 530.369 1175.08 472.156 1224.03 419.345ZM791.057 839.1C766.883 881.019 743.854 923.255 722.017 965.57C691.592 893.413 665.563 822.457 644.301 753.944C714.081 738.329 788.493 725.56 866.031 715.883C840.346 755.947 815.297 797.068 791.057 839.1ZM868.264 1463.45C788.153 1454.51 712.623 1442.4 642.86 1427.22C664.462 1357.48 691.065 1285.01 722.135 1211.3C744.028 1253.58 767.148 1295.84 791.471 1337.85C816.246 1380.64 841.917 1422.57 868.264 1463.45ZM1226.92 1759.9C1177.4 1706.47 1128.01 1647.37 1079.77 1583.8C1126.6 1585.64 1174.34 1586.58 1222.86 1586.58C1272.71 1586.58 1321.99 1585.45 1370.5 1583.29C1322.87 1648.01 1274.78 1707.2 1226.92 1759.9ZM1725.6 1207.54C1758.29 1282.05 1785.85 1354.14 1807.73 1422.69C1736.82 1438.87 1660.25 1451.9 1579.58 1461.58C1604.97 1421.34 1630.04 1379.83 1654.66 1337.13C1679.58 1293.93 1703.23 1250.66 1725.6 1207.54ZM1564.16 1284.93C1525.93 1351.22 1486.68 1414.5 1446.83 1474.23C1374.26 1479.42 1299.28 1482.1 1222.86 1482.1C1146.75 1482.1 1072.72 1479.73 1001.43 1475.1C959.976 1414.59 919.873 1351.12 881.886 1285.5C843.998 1220.06 809.137 1154.07 777.54 1088.45C809.128 1022.67 843.907 956.606 881.576 891.284L881.568 891.297C919.337 825.801 959.088 762.642 1000.16 702.505C1072.89 697.007 1147.48 694.138 1222.86 694.138C1298.58 694.138 1373.26 697.028 1445.98 702.575C1486.42 762.272 1525.9 825.226 1563.82 890.731C1602.17 956.972 1637.39 1022.6 1669.25 1086.96C1637.49 1152.43 1602.34 1218.72 1564.16 1284.93ZM1779.69 118.206C1861.59 165.436 1893.44 355.912 1841.98 605.686C1838.7 621.624 1835.01 637.858 1830.99 654.309C1729.52 630.897 1619.34 613.474 1503.98 602.652C1436.78 506.952 1367.14 419.95 1297.23 344.628C1316.03 326.549 1334.8 309.31 1353.48 293.041C1534.04 135.907 1702.8 73.8671 1779.69 118.206ZM1222.86 867.545C1343.48 867.545 1441.26 965.321 1441.26 1085.94C1441.26 1206.55 1343.48 1304.33 1222.86 1304.33C1102.25 1304.33 1004.47 1206.55 1004.47 1085.94C1004.47 965.321 1102.25 867.545 1222.86 867.545Z" fill="#00D8FF"/>
</svg>
