<svg width="2222" height="2500" viewBox="0 0 2222 2500" fill="none" xmlns="http://www.w3.org/2000/svg">
<path d="M2212.12 740.069C2212.11 698.447 2203.21 661.667 2185.2 630.11C2167.52 599.061 2141.04 573.045 2105.52 552.475C1812.31 383.409 1518.81 214.86 1225.7 45.6209C1146.68 -5.17009e-05 1070.06 1.67174 991.622 47.9476C874.916 116.767 290.607 451.53 116.491 552.38C44.7851 593.899 9.89293 657.428 9.8757 739.992C9.76367 1079.99 9.8757 1420 9.76367 1760C9.76367 1800.71 18.3036 1836.78 35.5127 1867.86C53.2044 1899.84 80.0565 1926.58 116.396 1947.61C290.521 2048.46 874.907 2383.2 991.588 2452.04C1070.06 2498.35 1146.68 2500 1225.72 2454.37C1518.85 2285.12 1812.36 2116.57 2105.61 1947.51C2141.95 1926.48 2168.8 1899.73 2186.5 1867.78C2203.68 1836.69 2212.24 1800.62 2212.24 1759.9C2212.24 1759.9 2212.24 1080.08 2212.12 740.069Z" fill="white"/>
<path d="M1202.4 760.928V977.878L1578.09 1194.83V977.878L1202.4 760.928ZM451 977.878V1194.83L638.844 1303.28V1086.35L451 977.878ZM1014.53 1086.35L826.689 1194.83V1845.63L1014.53 1954.11V1520.23L1202.4 1628.71V1411.76L1014.53 1303.28V1086.35Z" fill="#E55B2D"/>
<path d="M1202.4 760.928L638.844 1086.35V1303.28L1014.53 1086.35V1303.28L1202.4 1194.83V760.928ZM1765.96 869.403L1578.09 977.878V1194.83L1765.96 1086.35V869.403ZM1390.24 1303.28L1202.4 1411.76V1628.71L1390.24 1520.23V1303.28ZM1202.4 1628.71L1014.53 1520.23V1954.11L1202.4 1845.63V1628.71Z" fill="#ED8E24"/>
<path d="M1202.4 544L451 977.878L638.844 1086.35L1202.4 760.928L1578.09 977.878L1765.96 869.403L1202.4 544ZM1202.4 1194.83L1014.53 1303.28L1202.4 1411.76L1390.24 1303.28L1202.4 1194.83Z" fill="#F8BF3C"/>
</svg>
