<svg width="2586" height="2586" viewBox="0 0 2586 2586" fill="none" xmlns="http://www.w3.org/2000/svg">
<g clip-path="url(#clip0_5_6)">
<path d="M2394.74 0H190.825C85.338 0 0 83.3985 0 186.3V2399.7C0 2502.71 85.338 2586 190.825 2586H2394.42C2499.8 2586 2586 2502.71 2586 2399.7V186.3C2586 83.3985 2499.8 0 2394.42 0H2394.74Z" fill="white"/>
<path fill-rule="evenodd" clip-rule="evenodd" d="M1292.99 350.055C786.535 350.055 375.852 782.887 375.852 1316.87C375.852 1744.06 638.64 2106.44 1003.05 2234.3C1048.87 2243.26 1065.7 2213.32 1065.7 2187.79C1065.7 2164.73 1064.85 2088.57 1064.45 2007.79C809.302 2066.27 755.462 1893.72 755.462 1893.72C713.742 1781.97 653.63 1752.25 653.63 1752.25C570.403 1692.25 659.903 1693.49 659.903 1693.49C751.984 1700.3 800.492 1793.12 800.492 1793.12C882.292 1940.9 1015.05 1898.18 1067.38 1873.5C1075.61 1811.01 1099.38 1768.34 1125.61 1744.2C921.901 1719.78 707.743 1636.87 707.743 1266.41C707.743 1160.85 743.586 1074.61 802.254 1006.88C792.716 982.548 761.324 884.215 811.124 751.043C811.124 751.043 888.124 725.058 1063.39 850.146C1136.56 828.708 1215.03 817.933 1292.99 817.565C1370.9 817.933 1449.42 828.676 1522.74 850.113C1697.78 725.027 1774.69 751.011 1774.69 751.011C1824.61 884.166 1793.22 982.517 1783.7 1006.85C1842.51 1074.57 1878.09 1160.82 1878.09 1266.37C1878.09 1637.72 1663.53 1719.46 1459.31 1743.41C1492.22 1773.42 1521.53 1832.26 1521.53 1922.45C1521.53 2051.81 1520.47 2155.93 1520.47 2187.77C1520.47 2213.5 1537 2243.64 1583.47 2234.15C1947.66 2106.16 2210.15 1743.89 2210.15 1316.87C2210.13 782.919 1799.5 350.055 1292.99 350.055Z" fill="black"/>
</g>
<defs>
<clipPath id="clip0_5_6">
<rect width="2586" height="2586" fill="white"/>
</clipPath>
</defs>
</svg>
